<?xml version="1.0" standalone="no"?>
<!DOCTYPE svg PUBLIC "-//W3C//DTD SVG 20010904//EN"
 "http://www.w3.org/TR/2001/REC-SVG-20010904/DTD/svg10.dtd">
<svg version="1.0" xmlns="http://www.w3.org/2000/svg"
 width="320.000000pt" height="320.000000pt" viewBox="0 0 320.000000 320.000000"
 preserveAspectRatio="xMidYMid meet">

<g transform="translate(0.000000,320.000000) scale(0.100000,-0.100000)"
fill="#000000" stroke="none">
<path d="M2110 2200 c-118 -16 -338 -45 -488 -64 -235 -31 -280 -39 -321 -61
-49 -27 -52 -31 -118 -155 -23 -41 -72 -133 -110 -205 -39 -71 -93 -173 -121
-225 -28 -52 -94 -176 -146 -275 -53 -99 -99 -190 -102 -203 -12 -44 9 -52
134 -52 105 0 119 2 158 25 39 23 50 40 123 184 85 169 112 201 166 201 46 0
76 -38 162 -205 74 -144 98 -176 146 -194 18 -7 135 -11 312 -11 312 0 346 5
384 59 13 17 31 95 56 238 39 223 39 232 4 320 -13 31 -12 34 23 70 50 53 54
64 78 204 53 308 54 324 22 362 -21 24 -98 21 -362 -13z m140 -314 c0 -39 -56
-131 -80 -131 -24 0 -23 39 1 87 42 84 79 104 79 44z m-514 -11 c22 -57 -216
-229 -258 -187 -31 31 39 114 143 170 66 35 106 41 115 17z m418 -578 c-2 -45
-43 -111 -87 -137 -42 -26 -52 -21 -51 23 2 45 43 111 87 137 42 26 52 21 51
-23z"/>
</g>
</svg>
